<svg width="613" height="642" viewBox="0 0 613 642" fill="none" xmlns="http://www.w3.org/2000/svg">
<g clip-path="url(#clip0_211_1756)">
<path d="M401.636 98.0856C406.412 98.0659 410.85 95.5895 413.806 91.8387C421.876 81.6022 435.279 73.7443 457.047 71.7939C482.669 69.4982 495.676 77.4561 502.676 89.9418C505.685 95.3094 511.45 98.9462 517.584 98.4525C518.244 98.3993 518.915 98.3514 519.595 98.3088C571.595 95.0503 576.884 128.16 571.595 145.225C567.779 157.539 543.503 159.779 522.298 160.071C516.814 160.147 512.408 164.269 508.596 168.212C500.872 176.202 485.865 175.216 471.347 175.216C454.012 175.216 425.472 170.675 411.545 158.263C408.585 155.626 404.93 153.649 400.967 153.604C380.851 153.374 360.758 150.327 354.677 144.886C342.333 133.84 343.742 101.518 395.827 98.2815C397.824 98.1575 399.759 98.0934 401.636 98.0856Z" fill="#E0F2FE"/>
<path d="M414.199 92.1482C422.166 82.0408 435.432 74.2327 457.092 72.2919C469.848 71.149 479.413 72.5634 486.641 75.7816C493.861 78.9958 498.786 84.0256 502.24 90.1863C505.328 95.6947 511.264 99.4628 517.624 98.9509C518.281 98.898 518.949 98.8502 519.626 98.8078C545.522 97.1851 559.645 104.621 566.672 114.437C573.719 124.28 573.729 136.651 571.118 145.077C570.21 148.007 568.077 150.37 565.001 152.274C561.922 154.18 557.925 155.608 553.354 156.669C544.213 158.792 532.888 159.425 522.291 159.572C519.42 159.611 516.853 160.711 514.54 162.278C512.23 163.842 510.145 165.891 508.237 167.865C504.496 171.734 498.956 173.466 492.462 174.213C487.259 174.813 481.516 174.774 475.692 174.735C474.246 174.726 472.796 174.716 471.347 174.716C462.717 174.716 451.288 173.585 440.286 170.908C429.273 168.228 418.75 164.015 411.877 157.89C408.866 155.206 405.1 153.151 400.972 153.104C390.935 152.989 380.911 152.171 372.646 150.707C368.513 149.974 364.83 149.081 361.81 148.038C358.779 146.992 356.457 145.808 355.011 144.513C349.013 139.147 346.319 128.558 351.531 118.893C356.735 109.241 369.903 100.394 395.858 98.7806C397.845 98.6571 399.771 98.5934 401.638 98.5856C406.587 98.5652 411.162 96.0007 414.199 92.1482Z" stroke="#60A5FA" stroke-opacity="0.81"/>
<path d="M297.444 128.503C302.212 128.659 306.714 126.282 309.548 122.444C320.669 107.376 339.577 95.6974 370.924 92.8684C408.547 89.4731 426.662 102.047 436.033 121.2C438.763 126.779 444.719 130.309 450.883 129.539C453.686 129.189 456.627 128.912 459.714 128.716C532.011 124.123 539.364 170.794 532.011 194.849C526.425 213.123 489.31 215.657 458.84 215.819C453.198 215.849 448.617 219.978 445.586 224.738C436.01 239.782 413.028 238.121 390.864 238.121C365.751 238.121 323.774 231.237 305.303 212.225C302.465 209.304 298.715 207.249 294.642 207.239C265.839 207.168 236.403 202.818 227.691 194.849C210.556 179.175 212.512 133.309 284.81 128.716C289.234 128.435 293.443 128.371 297.444 128.503ZM247.884 45.5272C252.624 45.2657 257.004 42.7683 260.378 39.4287C265.375 34.483 272.949 30.8223 284.268 29.8077C298.605 28.5226 306.401 32.5557 310.831 39.1555C313.451 43.0582 317.831 45.8673 322.522 45.5718V45.5718C353.795 43.6015 356.976 63.6213 353.795 73.9399C351.704 80.7224 339.404 82.4502 327.589 82.8379C322.031 83.0203 317.447 87.6727 312.48 90.1746C307.482 92.6924 300.093 92.2918 292.904 92.2918C283.211 92.2918 267.719 89.9399 258.8 83.6399C255.586 81.3703 251.943 79.394 248.011 79.2721C236.776 78.9239 226.05 77.0979 222.643 74.0032C215.219 67.2612 216.066 47.5321 247.39 45.5564C247.555 45.546 247.72 45.5363 247.884 45.5272Z" fill="#E0F2FE"/>
<path d="M309.95 122.741C320.971 107.809 339.736 96.1851 370.969 93.3664C389.722 91.674 403.557 93.967 413.853 99.0273C424.139 104.083 430.938 111.924 435.584 121.419C438.399 127.174 444.551 130.834 450.945 130.035C453.737 129.686 456.668 129.411 459.746 129.215C495.787 126.925 515.5 137.416 525.323 151.328C535.167 165.269 535.178 182.78 531.533 194.702C530.184 199.115 526.924 202.613 522.251 205.382C517.576 208.153 511.519 210.174 504.653 211.637C490.921 214.564 474.069 215.238 458.838 215.319C452.94 215.351 448.228 219.657 445.165 224.47C440.491 231.812 432.527 235.12 422.871 236.577C414.96 237.77 406.002 237.71 396.916 237.649C394.901 237.635 392.881 237.621 390.864 237.621C378.346 237.621 361.616 235.905 345.717 231.819C329.804 227.728 314.8 221.283 305.661 211.877C302.758 208.889 298.887 206.75 294.643 206.739C280.264 206.704 265.733 205.6 253.718 203.513C247.71 202.47 242.342 201.182 237.94 199.664C233.528 198.142 230.131 196.403 228.028 194.48C219.633 186.8 215.874 171.664 223.155 157.86C230.426 144.076 248.784 131.506 284.841 129.215C289.25 128.935 293.444 128.871 297.428 129.002C302.375 129.165 307.028 126.7 309.95 122.741ZM260.73 39.7841C265.628 34.9369 273.084 31.3123 284.313 30.3057C291.43 29.6677 296.881 30.354 301.083 31.9907C305.277 33.6241 308.255 36.2142 310.416 39.4342C313.107 43.4422 317.639 46.3804 322.553 46.0708C338.084 45.0923 346.498 49.5772 350.671 55.4375C354.864 61.3265 354.875 68.7391 353.317 73.7926C352.354 76.9178 348.996 78.983 344.205 80.3049C339.451 81.6169 333.47 82.1446 327.573 82.3381C324.661 82.4337 322.033 83.6993 319.553 85.2093C318.657 85.7545 317.768 86.34 316.889 86.9186C316.552 87.1407 316.216 87.3619 315.882 87.5793C314.67 88.3681 313.471 89.1155 312.255 89.728C309.846 90.9414 306.83 91.4652 303.482 91.6784C300.946 91.8399 298.258 91.8218 295.533 91.8036C294.659 91.7977 293.781 91.7918 292.904 91.7918C288.093 91.7918 281.833 91.2076 275.67 89.8402C269.5 88.4713 263.47 86.3269 259.088 83.2315C255.854 80.9475 252.11 78.8989 248.027 78.7724C242.428 78.5989 236.966 78.0573 232.488 77.177C230.249 76.7368 228.265 76.2137 226.637 75.6139C225.001 75.0112 223.761 74.3438 222.979 73.633C219.44 70.4193 217.833 64.0516 220.927 58.227C224.013 52.4198 231.85 47.0376 247.422 46.0554C247.586 46.0451 247.749 46.0354 247.911 46.0265C252.809 45.7562 257.298 43.1809 260.73 39.7841Z" stroke="#60A5FA" stroke-opacity="0.81"/>
</g>
<mask id="path-5-outside-1_211_1756" maskUnits="userSpaceOnUse" x="341.954" y="197.521" width="261" height="113" fill="black">
<rect fill="white" x="341.954" y="197.521" width="261" height="113"/>
<path d="M393.655 298.22V284.597H356.888C352.249 284.597 348.758 283.547 346.414 281.447C344.119 279.348 342.972 276.491 342.972 272.878C342.972 271.95 343.143 271.022 343.484 270.095C343.826 269.118 344.339 268.117 345.022 267.092C345.706 266.017 346.414 264.992 347.146 264.015C347.879 263.039 348.782 261.843 349.856 260.427L388.675 208.498C391.214 205.08 393.289 202.614 394.9 201.1C396.561 199.538 398.538 198.757 400.833 198.757C408.255 198.757 411.966 203.005 411.966 211.501V268.19H415.115C418.875 268.19 421.878 268.703 424.124 269.728C426.419 270.754 427.566 273 427.566 276.467C427.566 279.299 426.639 281.374 424.783 282.692C422.928 283.962 420.145 284.597 416.434 284.597H411.966V298.22C411.966 301.979 411.136 304.787 409.476 306.642C407.815 308.449 405.594 309.352 402.811 309.352C400.076 309.352 397.854 308.425 396.146 306.569C394.485 304.665 393.655 301.882 393.655 298.22ZM362.161 268.19H393.655V225.637L362.161 268.19ZM512.381 254.86C512.381 262.868 511.893 269.753 510.916 275.514C509.939 281.276 508.133 286.501 505.496 291.188C502.176 296.95 497.879 301.393 492.605 304.518C487.332 307.643 481.473 309.206 475.027 309.206C467.605 309.206 460.94 307.106 455.032 302.907C449.173 298.708 444.754 292.897 441.775 285.475C440.262 281.423 439.139 276.955 438.406 272.072C437.723 267.14 437.381 261.818 437.381 256.105C437.381 248.732 437.771 242.092 438.553 236.183C439.334 230.275 440.555 225.197 442.215 220.949C445.096 213.918 449.271 208.571 454.739 204.909C460.257 201.198 466.824 199.343 474.441 199.343C479.471 199.343 484.036 200.173 488.138 201.833C492.239 203.444 495.828 205.837 498.904 209.011C502.029 212.136 504.666 216.017 506.814 220.656C510.525 228.713 512.381 240.114 512.381 254.86ZM492.312 253.395C492.312 244.46 491.775 237.16 490.701 231.496C489.627 225.783 487.82 221.486 485.281 218.605C482.742 215.676 479.227 214.211 474.734 214.211C468.289 214.211 463.797 217.458 461.258 223.952C458.768 230.446 457.522 240.456 457.522 253.981C457.522 263.161 458.06 270.681 459.134 276.54C460.208 282.399 462.015 286.843 464.554 289.87C467.093 292.848 470.535 294.338 474.881 294.338C479.373 294.338 482.889 292.775 485.428 289.65C487.967 286.525 489.749 282.057 490.774 276.247C491.8 270.436 492.312 262.819 492.312 253.395ZM560.647 242.702C565.14 242.702 568.997 241.384 572.22 238.747C575.491 236.11 577.127 232.326 577.127 227.394C577.127 223.635 575.833 220.412 573.245 217.726C570.657 214.992 567.166 213.625 562.771 213.625C559.793 213.625 557.327 214.04 555.374 214.87C553.47 215.7 551.956 216.799 550.833 218.166C549.71 219.533 548.636 221.291 547.61 223.439C546.634 225.588 545.73 227.614 544.9 229.518C544.412 230.544 543.533 231.349 542.264 231.935C540.994 232.521 539.529 232.814 537.869 232.814C535.916 232.814 534.109 232.033 532.449 230.471C530.838 228.859 530.032 226.735 530.032 224.098C530.032 221.559 530.789 218.898 532.303 216.115C533.865 213.283 536.111 210.598 539.041 208.058C542.02 205.519 545.706 203.493 550.101 201.979C554.495 200.417 559.402 199.636 564.822 199.636C569.559 199.636 573.88 200.295 577.786 201.613C581.692 202.883 585.086 204.738 587.967 207.18C590.848 209.621 593.021 212.453 594.485 215.676C595.95 218.898 596.683 222.365 596.683 226.076C596.683 230.959 595.608 235.158 593.46 238.674C591.36 242.14 588.333 245.534 584.378 248.854C588.187 250.905 591.385 253.249 593.973 255.886C596.609 258.522 598.587 261.452 599.905 264.675C601.224 267.848 601.883 271.291 601.883 275.002C601.883 279.445 600.979 283.742 599.173 287.892C597.415 292.043 594.803 295.754 591.336 299.025C587.869 302.248 583.743 304.787 578.958 306.642C574.222 308.449 568.973 309.352 563.211 309.352C557.352 309.352 552.103 308.303 547.464 306.203C542.825 304.103 538.992 301.491 535.965 298.366C532.986 295.192 530.716 291.921 529.153 288.552C527.64 285.182 526.883 282.399 526.883 280.202C526.883 277.37 527.786 275.099 529.593 273.39C531.448 271.633 533.743 270.754 536.478 270.754C537.845 270.754 539.163 271.169 540.433 271.999C541.702 272.78 542.532 273.732 542.923 274.855C545.462 281.642 548.172 286.696 551.053 290.016C553.982 293.288 558.084 294.924 563.357 294.924C566.385 294.924 569.29 294.191 572.073 292.726C574.905 291.213 577.225 288.991 579.031 286.061C580.887 283.132 581.814 279.738 581.814 275.881C581.814 270.168 580.252 265.7 577.127 262.477C574.002 259.206 569.656 257.57 564.09 257.57C563.113 257.57 561.6 257.668 559.549 257.863C557.498 258.058 556.18 258.156 555.594 258.156C552.908 258.156 550.833 257.497 549.368 256.179C547.903 254.811 547.171 252.931 547.171 250.539C547.171 248.195 548.05 246.315 549.808 244.899C551.565 243.434 554.178 242.702 557.645 242.702H560.647Z"/>
</mask>
<path d="M393.655 298.22V284.597H356.888C352.249 284.597 348.758 283.547 346.414 281.447C344.119 279.348 342.972 276.491 342.972 272.878C342.972 271.95 343.143 271.022 343.484 270.095C343.826 269.118 344.339 268.117 345.022 267.092C345.706 266.017 346.414 264.992 347.146 264.015C347.879 263.039 348.782 261.843 349.856 260.427L388.675 208.498C391.214 205.08 393.289 202.614 394.9 201.1C396.561 199.538 398.538 198.757 400.833 198.757C408.255 198.757 411.966 203.005 411.966 211.501V268.19H415.115C418.875 268.19 421.878 268.703 424.124 269.728C426.419 270.754 427.566 273 427.566 276.467C427.566 279.299 426.639 281.374 424.783 282.692C422.928 283.962 420.145 284.597 416.434 284.597H411.966V298.22C411.966 301.979 411.136 304.787 409.476 306.642C407.815 308.449 405.594 309.352 402.811 309.352C400.076 309.352 397.854 308.425 396.146 306.569C394.485 304.665 393.655 301.882 393.655 298.22ZM362.161 268.19H393.655V225.637L362.161 268.19ZM512.381 254.86C512.381 262.868 511.893 269.753 510.916 275.514C509.939 281.276 508.133 286.501 505.496 291.188C502.176 296.95 497.879 301.393 492.605 304.518C487.332 307.643 481.473 309.206 475.027 309.206C467.605 309.206 460.94 307.106 455.032 302.907C449.173 298.708 444.754 292.897 441.775 285.475C440.262 281.423 439.139 276.955 438.406 272.072C437.723 267.14 437.381 261.818 437.381 256.105C437.381 248.732 437.771 242.092 438.553 236.183C439.334 230.275 440.555 225.197 442.215 220.949C445.096 213.918 449.271 208.571 454.739 204.909C460.257 201.198 466.824 199.343 474.441 199.343C479.471 199.343 484.036 200.173 488.138 201.833C492.239 203.444 495.828 205.837 498.904 209.011C502.029 212.136 504.666 216.017 506.814 220.656C510.525 228.713 512.381 240.114 512.381 254.86ZM492.312 253.395C492.312 244.46 491.775 237.16 490.701 231.496C489.627 225.783 487.82 221.486 485.281 218.605C482.742 215.676 479.227 214.211 474.734 214.211C468.289 214.211 463.797 217.458 461.258 223.952C458.768 230.446 457.522 240.456 457.522 253.981C457.522 263.161 458.06 270.681 459.134 276.54C460.208 282.399 462.015 286.843 464.554 289.87C467.093 292.848 470.535 294.338 474.881 294.338C479.373 294.338 482.889 292.775 485.428 289.65C487.967 286.525 489.749 282.057 490.774 276.247C491.8 270.436 492.312 262.819 492.312 253.395ZM560.647 242.702C565.14 242.702 568.997 241.384 572.22 238.747C575.491 236.11 577.127 232.326 577.127 227.394C577.127 223.635 575.833 220.412 573.245 217.726C570.657 214.992 567.166 213.625 562.771 213.625C559.793 213.625 557.327 214.04 555.374 214.87C553.47 215.7 551.956 216.799 550.833 218.166C549.71 219.533 548.636 221.291 547.61 223.439C546.634 225.588 545.73 227.614 544.9 229.518C544.412 230.544 543.533 231.349 542.264 231.935C540.994 232.521 539.529 232.814 537.869 232.814C535.916 232.814 534.109 232.033 532.449 230.471C530.838 228.859 530.032 226.735 530.032 224.098C530.032 221.559 530.789 218.898 532.303 216.115C533.865 213.283 536.111 210.598 539.041 208.058C542.02 205.519 545.706 203.493 550.101 201.979C554.495 200.417 559.402 199.636 564.822 199.636C569.559 199.636 573.88 200.295 577.786 201.613C581.692 202.883 585.086 204.738 587.967 207.18C590.848 209.621 593.021 212.453 594.485 215.676C595.95 218.898 596.683 222.365 596.683 226.076C596.683 230.959 595.608 235.158 593.46 238.674C591.36 242.14 588.333 245.534 584.378 248.854C588.187 250.905 591.385 253.249 593.973 255.886C596.609 258.522 598.587 261.452 599.905 264.675C601.224 267.848 601.883 271.291 601.883 275.002C601.883 279.445 600.979 283.742 599.173 287.892C597.415 292.043 594.803 295.754 591.336 299.025C587.869 302.248 583.743 304.787 578.958 306.642C574.222 308.449 568.973 309.352 563.211 309.352C557.352 309.352 552.103 308.303 547.464 306.203C542.825 304.103 538.992 301.491 535.965 298.366C532.986 295.192 530.716 291.921 529.153 288.552C527.64 285.182 526.883 282.399 526.883 280.202C526.883 277.37 527.786 275.099 529.593 273.39C531.448 271.633 533.743 270.754 536.478 270.754C537.845 270.754 539.163 271.169 540.433 271.999C541.702 272.78 542.532 273.732 542.923 274.855C545.462 281.642 548.172 286.696 551.053 290.016C553.982 293.288 558.084 294.924 563.357 294.924C566.385 294.924 569.29 294.191 572.073 292.726C574.905 291.213 577.225 288.991 579.031 286.061C580.887 283.132 581.814 279.738 581.814 275.881C581.814 270.168 580.252 265.7 577.127 262.477C574.002 259.206 569.656 257.57 564.09 257.57C563.113 257.57 561.6 257.668 559.549 257.863C557.498 258.058 556.18 258.156 555.594 258.156C552.908 258.156 550.833 257.497 549.368 256.179C547.903 254.811 547.171 252.931 547.171 250.539C547.171 248.195 548.05 246.315 549.808 244.899C551.565 243.434 554.178 242.702 557.645 242.702H560.647Z" fill="#ED1818"/>
<path d="M393.655 284.597H394.655V283.597H393.655V284.597ZM346.414 281.447L345.739 282.185L345.747 282.192L346.414 281.447ZM343.484 270.095L344.423 270.44L344.426 270.433L344.428 270.425L343.484 270.095ZM345.022 267.092L345.855 267.646L345.86 267.637L345.866 267.629L345.022 267.092ZM349.856 260.427L350.653 261.031L350.657 261.025L349.856 260.427ZM388.675 208.498L389.476 209.097L389.478 209.094L388.675 208.498ZM394.9 201.1L395.585 201.829L395.586 201.829L394.9 201.1ZM411.966 268.19H410.966V269.19H411.966V268.19ZM424.124 269.728L423.709 270.638L423.716 270.641L424.124 269.728ZM424.783 282.692L425.348 283.518L425.355 283.513L425.362 283.507L424.783 282.692ZM411.966 284.597V283.597H410.966V284.597H411.966ZM409.476 306.642L410.212 307.319L410.221 307.309L409.476 306.642ZM396.146 306.569L395.392 307.226L395.401 307.237L395.41 307.247L396.146 306.569ZM362.161 268.19L361.357 267.595L360.177 269.19H362.161V268.19ZM393.655 268.19V269.19H394.655V268.19H393.655ZM393.655 225.637H394.655V222.604L392.851 225.042L393.655 225.637ZM394.655 298.22V284.597H392.655V298.22H394.655ZM393.655 283.597H356.888V285.597H393.655V283.597ZM356.888 283.597C352.381 283.597 349.171 282.575 347.081 280.702L345.747 282.192C348.344 284.519 352.117 285.597 356.888 285.597V283.597ZM347.089 280.709C345.035 278.83 343.972 276.26 343.972 272.878H341.972C341.972 276.722 343.203 279.865 345.739 282.185L347.089 280.709ZM343.972 272.878C343.972 272.076 344.119 271.265 344.423 270.44L342.546 269.749C342.166 270.78 341.972 271.825 341.972 272.878H343.972ZM344.428 270.425C344.738 269.541 345.209 268.615 345.855 267.646L344.19 266.537C343.469 267.619 342.915 268.695 342.541 269.764L344.428 270.425ZM345.866 267.629C346.537 266.575 347.23 265.571 347.946 264.615L346.346 263.415C345.598 264.413 344.876 265.46 344.179 266.555L345.866 267.629ZM347.946 264.615C348.677 263.641 349.58 262.446 350.653 261.031L349.06 259.822C347.985 261.239 347.08 262.437 346.346 263.415L347.946 264.615ZM350.657 261.025L389.476 209.097L387.874 207.899L349.055 259.828L350.657 261.025ZM389.478 209.094C392.007 205.689 394.04 203.281 395.585 201.829L394.216 200.372C392.538 201.948 390.42 204.471 387.872 207.902L389.478 209.094ZM395.586 201.829C397.059 200.442 398.791 199.757 400.833 199.757V197.757C398.285 197.757 396.062 198.634 394.215 200.372L395.586 201.829ZM400.833 199.757C404.352 199.757 406.819 200.758 408.43 202.601C410.062 204.47 410.966 207.376 410.966 211.501H412.966C412.966 207.129 412.014 203.664 409.936 201.285C407.835 198.88 404.736 197.757 400.833 197.757V199.757ZM410.966 211.501V268.19H412.966V211.501H410.966ZM411.966 269.19H415.115V267.19H411.966V269.19ZM415.115 269.19C418.799 269.19 421.643 269.695 423.709 270.638L424.539 268.819C422.113 267.711 418.951 267.19 415.115 267.19V269.19ZM423.716 270.641C425.514 271.444 426.566 273.218 426.566 276.467H428.566C428.566 272.782 427.324 270.063 424.532 268.815L423.716 270.641ZM426.566 276.467C426.566 279.064 425.731 280.792 424.204 281.877L425.362 283.507C427.547 281.955 428.566 279.534 428.566 276.467H426.566ZM424.219 281.867C422.606 282.97 420.062 283.597 416.434 283.597V285.597C420.227 285.597 423.25 284.953 425.348 283.518L424.219 281.867ZM416.434 283.597H411.966V285.597H416.434V283.597ZM410.966 284.597V298.22H412.966V284.597H410.966ZM410.966 298.22C410.966 301.855 410.16 304.378 408.73 305.976L410.221 307.309C412.111 305.196 412.966 302.104 412.966 298.22H410.966ZM408.739 305.966C407.295 307.538 405.355 308.352 402.811 308.352V310.352C405.832 310.352 408.336 309.36 410.212 307.319L408.739 305.966ZM402.811 308.352C400.329 308.352 398.384 307.523 396.881 305.892L395.41 307.247C397.325 309.326 399.823 310.352 402.811 310.352V308.352ZM396.899 305.912C395.456 304.257 394.655 301.747 394.655 298.22H392.655C392.655 302.017 393.515 305.073 395.392 307.226L396.899 305.912ZM362.161 269.19H393.655V267.19H362.161V269.19ZM394.655 268.19V225.637H392.655V268.19H394.655ZM392.851 225.042L361.357 267.595L362.965 268.785L394.459 226.231L392.851 225.042ZM505.496 291.188L506.363 291.688L506.368 291.679L505.496 291.188ZM455.032 302.907L454.45 303.72L454.453 303.722L455.032 302.907ZM441.775 285.475L440.839 285.825L440.843 285.837L440.847 285.848L441.775 285.475ZM438.406 272.072L437.416 272.209L437.417 272.22L438.406 272.072ZM442.215 220.949L441.29 220.57L441.286 220.577L441.283 220.585L442.215 220.949ZM454.739 204.909L455.296 205.74L455.297 205.739L454.739 204.909ZM488.138 201.833L487.762 202.76L487.772 202.764L488.138 201.833ZM498.904 209.011L498.186 209.707L498.192 209.712L498.197 209.718L498.904 209.011ZM506.814 220.656L507.723 220.238L507.722 220.236L506.814 220.656ZM490.701 231.496L489.718 231.681L489.719 231.682L490.701 231.496ZM485.281 218.605L484.526 219.26L484.531 219.267L485.281 218.605ZM461.258 223.952L460.326 223.588L460.324 223.594L461.258 223.952ZM464.554 289.87L463.787 290.513L463.793 290.519L464.554 289.87ZM511.381 254.86C511.381 262.831 510.895 269.657 509.93 275.347L511.902 275.682C512.891 269.849 513.381 262.905 513.381 254.86H511.381ZM509.93 275.347C508.971 281.005 507.2 286.119 504.625 290.698L506.368 291.679C509.066 286.882 510.908 281.547 511.902 275.682L509.93 275.347ZM504.63 290.689C501.388 296.315 497.209 300.628 492.096 303.658L493.115 305.379C498.549 302.159 502.964 297.585 506.363 291.688L504.63 290.689ZM492.096 303.658C486.985 306.687 481.303 308.206 475.027 308.206V310.206C481.642 310.206 487.679 308.6 493.115 305.379L492.096 303.658ZM475.027 308.206C467.808 308.206 461.346 306.168 455.612 302.092L454.453 303.722C460.535 308.045 467.403 310.206 475.027 310.206V308.206ZM455.615 302.094C449.927 298.018 445.619 292.368 442.703 285.103L440.847 285.848C443.889 293.426 448.419 299.398 454.45 303.72L455.615 302.094ZM442.712 285.126C441.226 281.146 440.119 276.747 439.395 271.924L437.417 272.22C438.159 277.163 439.297 281.699 440.839 285.825L442.712 285.126ZM439.397 271.935C438.72 267.055 438.381 261.779 438.381 256.105H436.381C436.381 261.858 436.725 267.226 437.416 272.209L439.397 271.935ZM438.381 256.105C438.381 248.766 438.77 242.171 439.544 236.315L437.561 236.052C436.773 242.013 436.381 248.698 436.381 256.105H438.381ZM439.544 236.315C440.318 230.463 441.523 225.467 443.146 221.313L441.283 220.585C439.587 224.927 438.35 230.087 437.561 236.052L439.544 236.315ZM443.14 221.328C445.958 214.452 450.016 209.275 455.296 205.74L454.183 204.078C448.525 207.867 444.234 213.384 441.29 220.57L443.14 221.328ZM455.297 205.739C460.627 202.154 466.993 200.343 474.441 200.343V198.343C466.655 198.343 459.887 200.242 454.181 204.079L455.297 205.739ZM474.441 200.343C479.36 200.343 483.795 201.154 487.763 202.76L488.513 200.906C484.277 199.191 479.582 198.343 474.441 198.343V200.343ZM487.772 202.764C491.74 204.323 495.209 206.635 498.186 209.707L499.622 208.315C496.447 205.039 492.738 202.566 488.503 200.902L487.772 202.764ZM498.197 209.718C501.227 212.748 503.8 216.528 505.907 221.076L507.722 220.236C505.532 215.507 502.831 211.523 499.611 208.303L498.197 209.718ZM505.906 221.074C509.529 228.941 511.381 240.175 511.381 254.86H513.381C513.381 240.053 511.521 228.485 507.723 220.238L505.906 221.074ZM493.312 253.395C493.312 244.427 492.774 237.059 491.684 231.31L489.719 231.682C490.777 237.261 491.312 244.492 491.312 253.395H493.312ZM491.684 231.311C490.592 225.505 488.736 221.012 486.031 217.944L484.531 219.267C486.905 221.96 488.662 226.061 489.718 231.681L491.684 231.311ZM486.037 217.95C483.277 214.766 479.466 213.211 474.734 213.211V215.211C478.988 215.211 482.207 216.586 484.526 219.26L486.037 217.95ZM474.734 213.211C471.337 213.211 468.389 214.07 465.945 215.836C463.508 217.597 461.648 220.208 460.326 223.588L462.189 224.316C463.407 221.202 465.062 218.942 467.117 217.457C469.166 215.975 471.687 215.211 474.734 215.211V213.211ZM460.324 223.594C457.766 230.265 456.522 240.427 456.522 253.981H458.522C458.522 240.485 459.769 230.627 462.192 224.31L460.324 223.594ZM456.522 253.981C456.522 263.193 457.061 270.779 458.15 276.72L460.117 276.36C459.058 270.582 458.522 263.129 458.522 253.981H456.522ZM458.15 276.72C459.241 282.67 461.095 287.302 463.788 290.513L465.32 289.227C462.935 286.383 461.175 282.128 460.117 276.36L458.15 276.72ZM463.793 290.519C466.544 293.746 470.279 295.338 474.881 295.338V293.338C470.792 293.338 467.641 291.951 465.315 289.221L463.793 290.519ZM474.881 295.338C479.635 295.338 483.451 293.669 486.204 290.281L484.652 289.02C482.326 291.882 479.111 293.338 474.881 293.338V295.338ZM486.204 290.281C488.889 286.976 490.717 282.326 491.759 276.421L489.79 276.073C488.781 281.789 487.045 286.074 484.652 289.02L486.204 290.281ZM491.759 276.421C492.799 270.529 493.312 262.847 493.312 253.395H491.312C491.312 262.791 490.801 270.343 489.79 276.073L491.759 276.421ZM572.22 238.747L571.592 237.968L571.586 237.973L572.22 238.747ZM573.245 217.726L572.519 218.414L572.525 218.42L573.245 217.726ZM555.374 214.87L554.983 213.95L554.974 213.953L555.374 214.87ZM547.61 223.439L546.708 223.009L546.704 223.017L546.7 223.025L547.61 223.439ZM544.9 229.518L545.803 229.948L545.81 229.933L545.817 229.918L544.9 229.518ZM532.449 230.471L531.742 231.178L531.753 231.188L531.764 231.199L532.449 230.471ZM532.303 216.115L531.427 215.632L531.424 215.637L532.303 216.115ZM539.041 208.058L538.392 207.297L538.386 207.303L539.041 208.058ZM550.101 201.979L550.426 202.925L550.436 202.922L550.101 201.979ZM577.786 201.613L577.466 202.561L577.477 202.564L577.786 201.613ZM593.46 238.674L592.607 238.152L592.605 238.156L593.46 238.674ZM584.378 248.854L583.735 248.088L582.606 249.036L583.904 249.735L584.378 248.854ZM593.973 255.886L593.259 256.586L593.266 256.593L593.973 255.886ZM599.905 264.675L598.98 265.053L598.982 265.058L599.905 264.675ZM599.173 287.892L598.256 287.493L598.252 287.502L599.173 287.892ZM591.336 299.025L592.017 299.758L592.022 299.753L591.336 299.025ZM578.958 306.642L579.314 307.577L579.32 307.575L578.958 306.642ZM535.965 298.366L535.236 299.05L535.241 299.056L535.247 299.062L535.965 298.366ZM529.153 288.552L528.241 288.961L528.246 288.972L529.153 288.552ZM529.593 273.39L530.28 274.117L530.281 274.116L529.593 273.39ZM540.433 271.999L539.885 272.836L539.897 272.843L539.909 272.851L540.433 271.999ZM542.923 274.855L541.978 275.184L541.982 275.195L541.986 275.206L542.923 274.855ZM551.053 290.016L550.297 290.672L550.303 290.678L550.308 290.684L551.053 290.016ZM572.073 292.726L572.539 293.611L572.545 293.608L572.073 292.726ZM579.031 286.061L578.186 285.526L578.18 285.536L579.031 286.061ZM577.127 262.477L576.404 263.168L576.409 263.174L577.127 262.477ZM549.368 256.179L548.686 256.91L548.692 256.916L548.699 256.922L549.368 256.179ZM549.808 244.899L550.435 245.678L550.441 245.673L550.448 245.667L549.808 244.899ZM560.647 243.702C565.351 243.702 569.437 242.316 572.853 239.521L571.586 237.973C568.557 240.452 564.928 241.702 560.647 241.702V243.702ZM572.847 239.526C576.396 236.665 578.127 232.57 578.127 227.394H576.127C576.127 232.082 574.586 235.555 571.592 237.968L572.847 239.526ZM578.127 227.394C578.127 223.378 576.734 219.906 573.965 217.033L572.525 218.42C574.932 220.918 576.127 223.891 576.127 227.394H578.127ZM573.971 217.039C571.163 214.071 567.391 212.625 562.771 212.625V214.625C566.941 214.625 570.152 215.913 572.519 218.414L573.971 217.039ZM562.771 212.625C559.709 212.625 557.099 213.05 554.983 213.95L555.765 215.79C557.555 215.029 559.877 214.625 562.771 214.625V212.625ZM554.974 213.953C552.95 214.836 551.3 216.022 550.06 217.531L551.606 218.801C552.612 217.575 553.989 216.565 555.774 215.787L554.974 213.953ZM550.06 217.531C548.872 218.978 547.757 220.81 546.708 223.009L548.513 223.87C549.515 221.771 550.548 220.088 551.606 218.801L550.06 217.531ZM546.7 223.025C545.722 225.178 544.816 227.209 543.984 229.119L545.817 229.918C546.645 228.019 547.546 225.997 548.521 223.853L546.7 223.025ZM543.998 229.088C543.631 229.857 542.953 230.516 541.845 231.027L542.683 232.843C544.114 232.183 545.193 231.23 545.803 229.948L543.998 229.088ZM541.845 231.027C540.729 231.542 539.411 231.814 537.869 231.814V233.814C539.647 233.814 541.26 233.5 542.683 232.843L541.845 231.027ZM537.869 231.814C536.213 231.814 534.642 231.161 533.135 229.742L531.764 231.199C533.576 232.905 535.619 233.814 537.869 233.814V231.814ZM533.156 229.763C531.762 228.369 531.032 226.515 531.032 224.098H529.032C529.032 226.955 529.914 229.349 531.742 231.178L533.156 229.763ZM531.032 224.098C531.032 221.763 531.728 219.265 533.181 216.593L531.424 215.637C529.85 218.531 529.032 221.356 529.032 224.098H531.032ZM533.178 216.598C534.674 213.888 536.838 211.291 539.696 208.814L538.386 207.303C535.385 209.904 533.057 212.679 531.427 215.632L533.178 216.598ZM539.69 208.819C542.557 206.375 546.128 204.405 550.426 202.925L549.775 201.034C545.284 202.581 541.482 204.664 538.392 207.297L539.69 208.819ZM550.436 202.922C554.707 201.403 559.498 200.636 564.822 200.636V198.636C559.306 198.636 554.284 199.431 549.766 201.037L550.436 202.922ZM564.822 200.636C569.466 200.636 573.677 201.282 577.466 202.561L578.106 200.666C574.083 199.308 569.651 198.636 564.822 198.636V200.636ZM577.477 202.564C581.271 203.797 584.547 205.592 587.32 207.942L588.613 206.417C585.625 203.884 582.114 201.968 578.095 200.662L577.477 202.564ZM587.32 207.942C590.096 210.295 592.175 213.01 593.575 216.089L595.396 215.262C593.866 211.896 591.599 208.947 588.613 206.417L587.32 207.942ZM593.575 216.089C594.978 219.176 595.683 222.501 595.683 226.076H597.683C597.683 222.229 596.922 218.621 595.396 215.262L593.575 216.089ZM595.683 226.076C595.683 230.809 594.643 234.821 592.607 238.152L594.313 239.195C596.574 235.496 597.683 231.108 597.683 226.076H595.683ZM592.605 238.156C590.575 241.507 587.628 244.82 583.735 248.088L585.021 249.62C589.038 246.248 592.146 242.774 594.315 239.192L592.605 238.156ZM583.904 249.735C587.639 251.746 590.752 254.032 593.259 256.586L594.686 255.185C592.017 252.466 588.734 250.064 584.852 247.974L583.904 249.735ZM593.266 256.593C595.815 259.142 597.715 261.962 598.98 265.053L600.831 264.296C599.459 260.942 597.404 257.902 594.68 255.178L593.266 256.593ZM598.982 265.058C600.246 268.101 600.883 271.412 600.883 275.002H602.883C602.883 271.17 602.202 267.596 600.829 264.291L598.982 265.058ZM600.883 275.002C600.883 279.305 600.009 283.466 598.256 287.493L600.09 288.292C601.95 284.018 602.883 279.585 602.883 275.002H600.883ZM598.252 287.502C596.551 291.518 594.022 295.116 590.65 298.298L592.022 299.753C595.584 296.392 598.279 292.568 600.094 288.282L598.252 287.502ZM590.655 298.293C587.289 301.422 583.274 303.897 578.596 305.71L579.32 307.575C584.213 305.677 588.45 303.074 592.017 299.758L590.655 298.293ZM578.602 305.708C573.994 307.466 568.867 308.352 563.211 308.352V310.352C569.078 310.352 574.45 309.432 579.314 307.577L578.602 305.708ZM563.211 308.352C557.472 308.352 552.367 307.325 547.876 305.292L547.052 307.114C551.838 309.28 557.231 310.352 563.211 310.352V308.352ZM547.876 305.292C543.333 303.236 539.609 300.691 536.683 297.67L535.247 299.062C538.375 302.291 542.317 304.971 547.052 307.114L547.876 305.292ZM536.694 297.682C533.776 294.573 531.571 291.388 530.061 288.131L528.246 288.972C529.86 292.453 532.196 295.812 535.236 299.05L536.694 297.682ZM530.065 288.142C528.575 284.825 527.883 282.193 527.883 280.202H525.883C525.883 282.605 526.704 285.54 528.241 288.961L530.065 288.142ZM527.883 280.202C527.883 277.603 528.702 275.61 530.28 274.117L528.906 272.664C526.871 274.589 525.883 277.137 525.883 280.202H527.883ZM530.281 274.116C531.936 272.548 533.979 271.754 536.478 271.754V269.754C533.507 269.754 530.96 270.718 528.905 272.665L530.281 274.116ZM536.478 271.754C537.629 271.754 538.76 272.1 539.885 272.836L540.98 271.162C539.566 270.238 538.06 269.754 536.478 269.754V271.754ZM539.909 272.851C541.033 273.542 541.681 274.329 541.978 275.184L543.867 274.527C543.383 273.136 542.371 272.018 540.957 271.147L539.909 272.851ZM541.986 275.206C544.544 282.042 547.304 287.222 550.297 290.672L551.808 289.361C549.04 286.17 546.38 281.243 543.859 274.505L541.986 275.206ZM550.308 290.684C553.465 294.209 557.862 295.924 563.357 295.924V293.924C558.306 293.924 554.5 292.367 551.798 289.349L550.308 290.684ZM563.357 295.924C566.553 295.924 569.618 295.149 572.539 293.611L571.607 291.841C568.962 293.234 566.216 293.924 563.357 293.924V295.924ZM572.545 293.608C575.544 292.005 577.99 289.655 579.882 286.586L578.18 285.536C576.459 288.327 574.267 290.42 571.602 291.844L572.545 293.608ZM579.876 286.596C581.844 283.489 582.814 279.906 582.814 275.881H580.814C580.814 279.571 579.929 282.774 578.186 285.526L579.876 286.596ZM582.814 275.881C582.814 269.982 581.196 265.238 577.845 261.781L576.409 263.174C579.307 266.162 580.814 270.354 580.814 275.881H582.814ZM577.85 261.787C574.494 258.274 569.862 256.57 564.09 256.57V258.57C569.45 258.57 573.509 260.138 576.404 263.168L577.85 261.787ZM564.09 256.57C563.063 256.57 561.51 256.672 559.454 256.868L559.644 258.859C561.689 258.664 563.164 258.57 564.09 258.57V256.57ZM559.454 256.868C557.39 257.064 556.123 257.156 555.594 257.156V259.156C556.237 259.156 557.606 259.053 559.644 258.859L559.454 256.868ZM555.594 257.156C553.065 257.156 551.261 256.536 550.037 255.435L548.699 256.922C550.405 258.457 552.752 259.156 555.594 259.156V257.156ZM550.05 255.448C548.827 254.306 548.171 252.713 548.171 250.539H546.171C546.171 253.15 546.979 255.317 548.686 256.91L550.05 255.448ZM548.171 250.539C548.171 248.484 548.923 246.896 550.435 245.678L549.18 244.121C547.177 245.735 546.171 247.906 546.171 250.539H548.171ZM550.448 245.667C551.954 244.413 554.296 243.702 557.645 243.702V241.702C554.059 241.702 551.177 242.456 549.167 244.131L550.448 245.667ZM557.645 243.702H560.647V241.702H557.645V243.702Z" fill="#F87171" mask="url(#path-5-outside-1_211_1756)"/>
<path d="M375.092 345.801H367.796L366.452 349.521H364.148L370.196 332.889H372.716L378.74 349.521H376.436L375.092 345.801ZM374.468 344.025L371.444 335.577L368.42 344.025H374.468ZM380.56 341.145C380.56 339.513 380.928 338.049 381.664 336.753C382.4 335.441 383.4 334.417 384.664 333.681C385.944 332.945 387.36 332.577 388.912 332.577C390.736 332.577 392.328 333.017 393.688 333.897C395.048 334.777 396.04 336.025 396.664 337.641H394.048C393.584 336.633 392.912 335.857 392.032 335.313C391.168 334.769 390.128 334.497 388.912 334.497C387.744 334.497 386.696 334.769 385.768 335.313C384.84 335.857 384.112 336.633 383.584 337.641C383.056 338.633 382.792 339.801 382.792 341.145C382.792 342.473 383.056 343.641 383.584 344.649C384.112 345.641 384.84 346.409 385.768 346.953C386.696 347.497 387.744 347.769 388.912 347.769C390.128 347.769 391.168 347.505 392.032 346.977C392.912 346.433 393.584 345.657 394.048 344.649H396.664C396.04 346.249 395.048 347.489 393.688 348.369C392.328 349.233 390.736 349.665 388.912 349.665C387.36 349.665 385.944 349.305 384.664 348.585C383.4 347.849 382.4 346.833 381.664 345.537C380.928 344.241 380.56 342.777 380.56 341.145ZM402.099 334.569V340.161H408.195V341.961H402.099V347.721H408.915V349.521H399.915V332.769H408.915V334.569H402.099ZM414.404 334.569V340.161H420.5V341.961H414.404V347.721H421.22V349.521H412.22V332.769H421.22V334.569H414.404ZM429.829 349.689C428.725 349.689 427.733 349.497 426.853 349.113C425.989 348.713 425.309 348.169 424.813 347.481C424.317 346.777 424.061 345.969 424.045 345.057H426.373C426.453 345.841 426.773 346.505 427.333 347.049C427.909 347.577 428.741 347.841 429.829 347.841C430.869 347.841 431.685 347.585 432.277 347.073C432.885 346.545 433.189 345.873 433.189 345.057C433.189 344.417 433.013 343.897 432.661 343.497C432.309 343.097 431.869 342.793 431.341 342.585C430.813 342.377 430.101 342.153 429.205 341.913C428.101 341.625 427.213 341.337 426.541 341.049C425.885 340.761 425.317 340.313 424.837 339.705C424.373 339.081 424.141 338.249 424.141 337.209C424.141 336.297 424.373 335.489 424.837 334.785C425.301 334.081 425.949 333.537 426.781 333.153C427.629 332.769 428.597 332.577 429.685 332.577C431.253 332.577 432.533 332.969 433.525 333.753C434.533 334.537 435.101 335.577 435.229 336.873H432.829C432.749 336.233 432.413 335.673 431.821 335.193C431.229 334.697 430.445 334.449 429.469 334.449C428.557 334.449 427.813 334.689 427.237 335.169C426.661 335.633 426.373 336.289 426.373 337.137C426.373 337.745 426.541 338.241 426.877 338.625C427.229 339.009 427.653 339.305 428.149 339.513C428.661 339.705 429.373 339.929 430.285 340.185C431.389 340.489 432.277 340.793 432.949 341.097C433.621 341.385 434.197 341.841 434.677 342.465C435.157 343.073 435.397 343.905 435.397 344.961C435.397 345.777 435.181 346.545 434.749 347.265C434.317 347.985 433.677 348.569 432.829 349.017C431.981 349.465 430.981 349.689 429.829 349.689ZM443.915 349.689C442.811 349.689 441.819 349.497 440.939 349.113C440.075 348.713 439.395 348.169 438.899 347.481C438.403 346.777 438.147 345.969 438.131 345.057H440.459C440.539 345.841 440.859 346.505 441.419 347.049C441.995 347.577 442.827 347.841 443.915 347.841C444.955 347.841 445.771 347.585 446.363 347.073C446.971 346.545 447.275 345.873 447.275 345.057C447.275 344.417 447.099 343.897 446.747 343.497C446.395 343.097 445.955 342.793 445.427 342.585C444.899 342.377 444.187 342.153 443.291 341.913C442.187 341.625 441.299 341.337 440.627 341.049C439.971 340.761 439.403 340.313 438.923 339.705C438.459 339.081 438.227 338.249 438.227 337.209C438.227 336.297 438.459 335.489 438.923 334.785C439.387 334.081 440.035 333.537 440.867 333.153C441.715 332.769 442.683 332.577 443.771 332.577C445.339 332.577 446.619 332.969 447.611 333.753C448.619 334.537 449.187 335.577 449.315 336.873H446.915C446.835 336.233 446.499 335.673 445.907 335.193C445.315 334.697 444.531 334.449 443.555 334.449C442.643 334.449 441.899 334.689 441.323 335.169C440.747 335.633 440.459 336.289 440.459 337.137C440.459 337.745 440.627 338.241 440.963 338.625C441.315 339.009 441.739 339.305 442.235 339.513C442.747 339.705 443.459 339.929 444.371 340.185C445.475 340.489 446.363 340.793 447.035 341.097C447.707 341.385 448.283 341.841 448.763 342.465C449.243 343.073 449.483 343.905 449.483 344.961C449.483 345.777 449.267 346.545 448.835 347.265C448.403 347.985 447.763 348.569 446.915 349.017C446.067 349.465 445.067 349.689 443.915 349.689ZM468.551 332.793V334.569H461.279V340.209H467.183V341.985H461.279V349.521H459.095V332.793H468.551ZM478.773 349.689C477.221 349.689 475.805 349.329 474.525 348.609C473.245 347.873 472.229 346.857 471.477 345.561C470.741 344.249 470.373 342.777 470.373 341.145C470.373 339.513 470.741 338.049 471.477 336.753C472.229 335.441 473.245 334.425 474.525 333.705C475.805 332.969 477.221 332.601 478.773 332.601C480.341 332.601 481.765 332.969 483.045 333.705C484.325 334.425 485.333 335.433 486.069 336.729C486.805 338.025 487.173 339.497 487.173 341.145C487.173 342.793 486.805 344.265 486.069 345.561C485.333 346.857 484.325 347.873 483.045 348.609C481.765 349.329 480.341 349.689 478.773 349.689ZM478.773 347.793C479.941 347.793 480.989 347.521 481.917 346.977C482.861 346.433 483.597 345.657 484.125 344.649C484.669 343.641 484.941 342.473 484.941 341.145C484.941 339.801 484.669 338.633 484.125 337.641C483.597 336.633 482.869 335.857 481.941 335.313C481.013 334.769 479.957 334.497 478.773 334.497C477.589 334.497 476.533 334.769 475.605 335.313C474.677 335.857 473.941 336.633 473.397 337.641C472.869 338.633 472.605 339.801 472.605 341.145C472.605 342.473 472.869 343.641 473.397 344.649C473.941 345.657 474.677 346.433 475.605 346.977C476.549 347.521 477.605 347.793 478.773 347.793ZM498.864 349.521L494.88 342.681H492.24V349.521H490.056V332.793H495.456C496.72 332.793 497.784 333.009 498.648 333.441C499.528 333.873 500.184 334.457 500.616 335.193C501.048 335.929 501.264 336.769 501.264 337.713C501.264 338.865 500.928 339.881 500.256 340.761C499.6 341.641 498.608 342.225 497.28 342.513L501.48 349.521H498.864ZM492.24 340.929H495.456C496.64 340.929 497.528 340.641 498.12 340.065C498.712 339.473 499.008 338.689 499.008 337.713C499.008 336.721 498.712 335.953 498.12 335.409C497.544 334.865 496.656 334.593 495.456 334.593H492.24V340.929ZM513.034 340.905C513.642 341.001 514.194 341.249 514.69 341.649C515.202 342.049 515.602 342.545 515.89 343.137C516.194 343.729 516.346 344.361 516.346 345.033C516.346 345.881 516.13 346.649 515.698 347.337C515.266 348.009 514.634 348.545 513.802 348.945C512.986 349.329 512.018 349.521 510.898 349.521H504.658V332.793H510.658C511.794 332.793 512.762 332.985 513.562 333.369C514.362 333.737 514.962 334.241 515.362 334.881C515.762 335.521 515.962 336.241 515.962 337.041C515.962 338.033 515.69 338.857 515.146 339.513C514.618 340.153 513.914 340.617 513.034 340.905ZM506.842 340.017H510.514C511.538 340.017 512.33 339.777 512.89 339.297C513.45 338.817 513.73 338.153 513.73 337.305C513.73 336.457 513.45 335.793 512.89 335.313C512.33 334.833 511.522 334.593 510.466 334.593H506.842V340.017ZM510.706 347.721C511.794 347.721 512.642 347.465 513.25 346.953C513.858 346.441 514.162 345.729 514.162 344.817C514.162 343.889 513.842 343.161 513.202 342.633C512.562 342.089 511.706 341.817 510.634 341.817H506.842V347.721H510.706ZM521.56 332.793V349.521H519.376V332.793H521.56ZM530.491 332.793C532.315 332.793 533.891 333.137 535.219 333.825C536.563 334.497 537.587 335.465 538.291 336.729C539.011 337.993 539.371 339.481 539.371 341.193C539.371 342.905 539.011 344.393 538.291 345.657C537.587 346.905 536.563 347.865 535.219 348.537C533.891 349.193 532.315 349.521 530.491 349.521H525.283V332.793H530.491ZM530.491 347.721C532.651 347.721 534.299 347.153 535.435 346.017C536.571 344.865 537.139 343.257 537.139 341.193C537.139 339.113 536.563 337.489 535.411 336.321C534.275 335.153 532.635 334.569 530.491 334.569H527.467V347.721H530.491ZM547.459 332.793C549.283 332.793 550.859 333.137 552.187 333.825C553.531 334.497 554.555 335.465 555.259 336.729C555.979 337.993 556.339 339.481 556.339 341.193C556.339 342.905 555.979 344.393 555.259 345.657C554.555 346.905 553.531 347.865 552.187 348.537C550.859 349.193 549.283 349.521 547.459 349.521H542.251V332.793H547.459ZM547.459 347.721C549.619 347.721 551.267 347.153 552.403 346.017C553.539 344.865 554.107 343.257 554.107 341.193C554.107 339.113 553.531 337.489 552.379 336.321C551.243 335.153 549.603 334.569 547.459 334.569H544.435V347.721H547.459ZM561.404 334.569V340.161H567.5V341.961H561.404V347.721H568.22V349.521H559.22V332.769H568.22V334.569H561.404ZM584.677 349.521H582.493L573.709 336.201V349.521H571.525V332.769H573.709L582.493 346.065V332.769H584.677V349.521Z" fill="black"/>
<path d="M40.4686 162.253V129.753C40.4686 106.75 59.5876 88.0345 83.0828 88.0345C106.578 88.0345 125.697 106.75 125.697 129.753V162.253H142.685V129.753C142.685 97.5814 115.948 71.4 83.0828 71.4C50.2173 71.4 23.481 97.5814 23.481 129.753V162.253H40.4686Z" fill="#FFDF00"/>
<path d="M140.72 162.48H23.7554C17.128 162.48 11.7554 167.853 11.7554 174.48V258.119C11.7554 264.746 17.1279 270.119 23.7554 270.119H140.72C147.347 270.119 152.72 264.746 152.72 258.119V174.48C152.72 167.853 147.347 162.48 140.72 162.48Z" fill="#F9F2EA" stroke="#FBCD98" stroke-opacity="0.2" stroke-linecap="round" stroke-linejoin="round"/>
<path fill-rule="evenodd" clip-rule="evenodd" d="M73.9681 213.156C74.503 213.489 74.8329 214.084 74.7717 214.711C74.8329 214.084 74.503 213.489 73.9681 213.156ZM88.4304 214.71C88.3698 214.083 88.6996 213.489 89.2342 213.156C88.6999 213.488 88.3693 214.083 88.4304 214.71Z" fill="#EEE2D8"/>
<path d="M95.7701 201.465C95.6602 197.781 94.1192 194.284 91.474 191.716C88.8288 189.149 85.2874 187.713 81.6011 187.713C77.9148 187.713 74.3735 189.149 71.7283 191.716C69.0831 194.284 67.5421 197.781 67.4321 201.465C67.4473 203.984 68.1479 206.451 69.4588 208.602C70.5883 210.455 72.1342 212.013 73.9681 213.156C74.503 213.489 74.8329 214.084 74.7717 214.711L72.6549 236.417C72.5662 237.326 73.281 238.114 74.1949 238.114H89.0074C89.9213 238.114 90.6361 237.326 90.5474 236.417L88.4305 214.711C88.4305 214.711 88.4305 214.71 88.4304 214.71C88.3693 214.083 88.6999 213.488 89.2342 213.156C91.068 212.013 92.6139 210.455 93.7435 208.602C95.0543 206.451 95.7549 203.984 95.7701 201.465Z" fill="#EEE2D8"/>
<path d="M169.627 312.445C169.627 300.476 179.329 290.774 191.298 290.774H235.14C247.109 290.774 256.811 300.476 256.811 312.445V380.47H169.627V312.445Z" fill="#3A3A3A"/>
<path d="M256.811 380.921H257.263V380.47V312.445C257.263 300.227 247.358 290.322 235.14 290.322H191.298C179.08 290.322 169.175 300.227 169.175 312.445V380.47V380.921H169.627H256.811Z" stroke="#3A3A3A" stroke-width="0.902965"/>
<path d="M219.601 369.436C217.294 359.221 223.687 348.988 233.879 346.58C244.071 344.173 254.203 350.502 256.509 360.718L277.435 453.409C279.741 463.624 273.348 473.857 263.156 476.265C252.964 478.672 242.832 472.343 240.526 462.127L219.601 369.436Z" fill="#3A3A3A"/>
<path d="M233.78 346.14C223.345 348.605 216.8 359.081 219.161 369.54L240.087 462.231C242.448 472.69 252.821 479.17 263.256 476.705C273.69 474.24 280.235 463.764 277.874 453.305L256.949 360.614C254.588 350.155 244.214 343.675 233.78 346.14Z" stroke="#3A3A3A" stroke-width="0.902965"/>
<path d="M308.382 595.878C308.269 585.369 299.658 576.941 289.149 577.054C278.64 577.167 270.213 585.778 270.326 596.287C270.439 606.796 279.049 615.223 289.558 615.11C300.067 614.997 308.495 606.386 308.382 595.878Z" fill="#FDBA90" stroke="#FDBA90" stroke-width="0.902965"/>
<path d="M266.429 599.941C266.408 597.946 268.008 596.312 270.002 596.29L311.502 595.844C312.386 595.835 313.243 596.15 313.91 596.73L337.115 616.901C339.622 619.081 338.106 623.203 334.785 623.239L270.3 623.933C268.305 623.954 266.671 622.354 266.649 620.36L266.429 599.941Z" fill="#662D03"/>
<line x1="289.629" y1="612.775" x2="289.216" y2="574.351" stroke="#00F9EA" stroke-opacity="0.28" stroke-width="0.451482" stroke-dasharray="0.9 0.9"/>
<line x1="271.022" y1="593.535" x2="308.27" y2="593.135" stroke="#00F9EA" stroke-opacity="0.28" stroke-width="0.451482" stroke-dasharray="0.9 0.9"/>
<rect x="269.869" y="574.785" width="37.9756" height="37.8956" rx="18.9478" transform="rotate(-0.616327 269.869 574.785)" stroke="#00F9EA" stroke-opacity="0.28" stroke-width="0.451482"/>
<path d="M241.091 466.528C238.937 456.008 245.65 445.714 256.145 443.441C266.473 441.205 276.714 447.559 279.298 457.806L312.501 589.489L266.75 591.868L241.091 466.528Z" fill="#3A3A3A"/>
<path d="M312.524 589.94L313.073 589.912L312.939 589.379L279.736 457.695C277.093 447.213 266.616 440.713 256.05 443C245.313 445.325 238.445 455.856 240.649 466.619L266.307 591.958L266.385 592.339L266.773 592.318L312.524 589.94Z" stroke="#3A3A3A" stroke-width="0.902965"/>
<path d="M277.847 457.958C276.389 447.839 267.003 440.819 256.885 442.278C246.766 443.737 239.746 453.122 241.205 463.241C242.663 473.359 252.049 480.379 262.167 478.921C272.286 477.462 279.306 468.077 277.847 457.958Z" fill="#3A3A3A" stroke="#3A3A3A" stroke-width="0.902965"/>
<line x1="262.038" y1="476.871" x2="257.19" y2="443.239" stroke="#00F9EA" stroke-opacity="0.28" stroke-width="0.451482" stroke-dasharray="0.9 0.9"/>
<line x1="243.505" y1="462.15" x2="276.107" y2="457.449" stroke="#00F9EA" stroke-opacity="0.28" stroke-width="0.451482" stroke-dasharray="0.9 0.9"/>
<rect x="240.337" y="445.897" width="33.5283" height="33.4576" rx="16.7288" transform="rotate(-8.20378 240.337 445.897)" stroke="#00F9EA" stroke-opacity="0.28" stroke-width="0.451482"/>
<line x1="238.115" y1="374.782" x2="234.27" y2="348.115" stroke="#00F9EA" stroke-opacity="0.28" stroke-width="0.451482" stroke-dasharray="0.9 0.9"/>
<line x1="223.459" y1="363.056" x2="249.309" y2="359.33" stroke="#00F9EA" stroke-opacity="0.28" stroke-width="0.451482" stroke-dasharray="0.9 0.9"/>
<rect x="221.007" y="350.255" width="26.4914" height="26.4353" rx="13.2176" transform="rotate(-8.20378 221.007 350.255)" stroke="#00F9EA" stroke-opacity="0.28" stroke-width="0.451482"/>
<path d="M207.148 369.533C209.453 359.317 203.059 349.085 192.866 346.679C182.674 344.273 172.543 350.604 170.238 360.82L149.327 453.514C147.022 463.73 153.417 473.962 163.609 476.368C173.802 478.774 183.933 472.443 186.237 462.227L207.148 369.533Z" fill="#3A3A3A"/>
<path d="M192.966 346.239C203.401 348.702 209.947 359.178 207.588 369.637L186.677 462.331C184.317 472.79 173.945 479.272 163.51 476.809C153.075 474.345 146.528 463.87 148.888 453.411L169.799 360.716C172.158 350.257 182.53 343.775 192.966 346.239Z" stroke="#3A3A3A" stroke-width="0.902965"/>
<path d="M118.403 596.104C118.456 585.595 127.019 577.118 137.528 577.171C148.037 577.224 156.514 585.787 156.461 596.296C156.408 606.806 147.845 615.282 137.336 615.229C126.827 615.176 118.35 606.614 118.403 596.104Z" fill="#FDBA90" stroke="#FDBA90" stroke-width="0.902965"/>
<path d="M160.378 599.961C160.388 597.967 158.779 596.341 156.784 596.331L115.283 596.122C114.398 596.118 113.543 596.438 112.879 597.022L89.79 617.325C87.2955 619.519 88.8352 623.633 92.1568 623.65L156.645 623.975C158.639 623.985 160.265 622.376 160.275 620.381L160.378 599.961Z" fill="#662D03"/>
<line y1="-0.225741" x2="38.4271" y2="-0.225741" transform="matrix(0.0050445 -0.999987 -0.999987 -0.00504437 137.025 612.894)" stroke="#00F9EA" stroke-opacity="0.28" stroke-width="0.451482" stroke-dasharray="0.9 0.9"/>
<line y1="-0.225741" x2="37.2499" y2="-0.225741" transform="matrix(-0.999987 -0.00504436 -0.00504436 0.999987 155.747 593.774)" stroke="#00F9EA" stroke-opacity="0.28" stroke-width="0.451482" stroke-dasharray="0.9 0.9"/>
<rect x="-0.226877" y="0.2246" width="37.9756" height="37.8956" rx="18.9478" transform="matrix(-0.999987 -0.00504436 -0.00504436 0.999987 156.569 574.566)" stroke="#00F9EA" stroke-opacity="0.28" stroke-width="0.451482"/>
<path d="M185.694 466.537C187.835 456.067 181.153 445.823 170.708 443.564C160.357 441.324 150.11 447.753 147.623 458.047L115.514 590.925L160.261 590.925L185.694 466.537Z" fill="#3A3A3A"/>
<path d="M115.514 591.376L114.941 591.376L115.075 590.819L147.184 457.941C149.729 447.409 160.213 440.831 170.803 443.122C181.49 445.434 188.327 455.915 186.136 466.627L160.703 591.015L160.629 591.376L160.261 591.376L115.514 591.376Z" stroke="#3A3A3A" stroke-width="0.902965"/>
<path d="M148.916 458.064C150.373 447.945 159.757 440.923 169.876 442.38C179.995 443.838 187.017 453.222 185.559 463.341C184.102 473.46 174.718 480.481 164.599 479.024C154.48 477.567 147.459 468.183 148.916 458.064Z" fill="#3A3A3A" stroke="#3A3A3A" stroke-width="0.902965"/>
<line y1="-0.225741" x2="33.9798" y2="-0.225741" transform="matrix(0.142541 -0.989789 -0.989789 -0.142541 164.504 476.942)" stroke="#00F9EA" stroke-opacity="0.28" stroke-width="0.451482" stroke-dasharray="0.9 0.9"/>
<line y1="-0.225741" x2="32.9389" y2="-0.225741" transform="matrix(-0.989789 -0.142541 -0.142541 0.989789 183.227 462.473)" stroke="#00F9EA" stroke-opacity="0.28" stroke-width="0.451482" stroke-dasharray="0.9 0.9"/>
<rect x="-0.255613" y="0.191259" width="33.5283" height="33.4576" rx="16.7288" transform="matrix(-0.989789 -0.142541 -0.142541 0.989789 186.198 445.771)" stroke="#00F9EA" stroke-opacity="0.28" stroke-width="0.451482"/>
<line y1="-0.225741" x2="26.9428" y2="-0.225741" transform="matrix(0.142541 -0.989789 -0.989789 -0.142541 188.41 374.85)" stroke="#00F9EA" stroke-opacity="0.28" stroke-width="0.451482" stroke-dasharray="0.9 0.9"/>
<line y1="-0.225741" x2="26.1175" y2="-0.225741" transform="matrix(-0.989789 -0.142541 -0.142541 0.989789 203.256 363.377)" stroke="#00F9EA" stroke-opacity="0.28" stroke-width="0.451482" stroke-dasharray="0.9 0.9"/>
<rect x="-0.255613" y="0.191259" width="26.4914" height="26.4353" rx="13.2176" transform="matrix(-0.989789 -0.142541 -0.142541 0.989789 205.512 350.126)" stroke="#00F9EA" stroke-opacity="0.28" stroke-width="0.451482"/>
<line x1="213.186" y1="348.103" x2="213.186" y2="335.505" stroke="#00F9EA" stroke-opacity="0.28" stroke-width="0.451482" stroke-dasharray="0.9 0.9"/>
<line x1="207.307" y1="341.578" x2="219.519" y2="341.578" stroke="#00F9EA" stroke-opacity="0.28" stroke-width="0.451482" stroke-dasharray="0.9 0.9"/>
<rect x="207.146" y="335.731" width="12.1466" height="12.1204" rx="6.0602" stroke="#00F9EA" stroke-opacity="0.28" stroke-width="0.451482"/>
<path d="M226.812 379.604C222.906 381.957 211.81 381.349 206.114 381.152L203.043 393.95" stroke="white" stroke-width="0.902965" stroke-linecap="round" stroke-linejoin="round"/>
<path d="M169.156 349.808L169.211 350.197H169.603H256.853H257.245L257.3 349.808L273.43 235.451C273.873 232.308 271.737 229.382 268.607 228.846L214.138 219.532C213.487 219.421 212.822 219.421 212.171 219.53L157.844 228.701C154.709 229.23 152.565 232.159 153.009 235.308L169.156 349.808Z" fill="#F472B6" stroke="#F9A8D4" stroke-width="0.902965"/>
<path fill-rule="evenodd" clip-rule="evenodd" d="M257.66 357.019C214.106 357.019 168.75 354.758 168.75 354.758L170.418 343.148C170.418 343.148 225.411 343.999 258.366 343.999C258.366 349.651 257.66 357.019 257.66 357.019Z" fill="black"/>
<path d="M203.552 342.929L203.552 342.929C202.81 342.952 202.168 343.59 202.168 344.44V354.838C202.168 355.702 202.83 356.344 203.586 356.349C203.586 356.349 203.586 356.349 203.586 356.349L203.58 357.349C209.73 357.382 221.086 357.517 226.071 357.578L203.552 342.929ZM203.552 342.929C203.966 342.917 204.426 342.902 204.929 342.885M203.552 342.929L204.929 342.885M204.929 342.885C209.762 342.724 218.467 342.435 226.348 343.43L204.929 342.885Z" stroke="#FFB8B8" stroke-width="2"/>
<path d="M227.009 345.167L203.228 355.854L202.63 354.542L226.311 344.006L227.009 345.167Z" fill="#FCEFE6" stroke="#FFB8B8"/>
<path d="M226.564 355.515L202.649 345.131L203.222 343.807L226.957 354.22L226.564 355.515Z" fill="#FCEFE6" stroke="#FFB8B8"/>
<path d="M185.815 230.244L195.042 252.791L213.193 242.283L230.389 252.791L240.163 228.388" stroke="black" stroke-width="0.902965" stroke-linecap="round" stroke-linejoin="round"/>
<path d="M229.931 219.546L271.385 231.071L270.146 236.66L229.621 224.094L229.931 219.546Z" fill="black"/>
<path d="M146.95 237.335C154.456 232.411 164.592 234.464 169.59 241.92C174.588 249.377 172.555 259.413 165.05 264.336L108.56 301.394C101.055 306.317 90.9183 304.264 85.9203 296.808C80.9223 289.351 82.9551 279.315 90.4607 274.392L146.95 237.335Z" fill="#FDBA90"/>
<path d="M147.202 237.71C154.499 232.923 164.354 234.919 169.213 242.168C174.072 249.417 172.096 259.174 164.798 263.961L108.309 301.018C101.012 305.805 91.157 303.809 86.2978 296.56C81.4386 289.311 83.4149 279.554 90.7121 274.767L147.202 237.71Z" stroke="#FDBA90" stroke-width="0.902965"/>
<mask id="mask0_211_1756" style="mask-type:alpha" maskUnits="userSpaceOnUse" x="83" y="234" width="90" height="71">
<path d="M147.202 237.71C154.499 232.923 164.354 234.919 169.213 242.168C174.072 249.417 172.096 259.174 164.798 263.961L108.309 301.018C101.012 305.805 91.157 303.809 86.2978 296.56C81.4386 289.311 83.4149 279.554 90.7121 274.767L147.202 237.71Z" fill="#F8DAC3" stroke="#F8DAC3" stroke-width="0.902965"/>
</mask>
<g mask="url(#mask0_211_1756)">
<path d="M171.747 240.083C166.223 231.779 155.295 229.337 147.339 234.629L108.643 258.194L134.806 285.733L167.344 264.702C175.299 259.41 177.271 248.388 171.747 240.083Z" fill="#ED9D63"/>
</g>
<path d="M171.384 336.124L167.068 384.851L88.1165 305.242C81.5943 298.665 81.5722 287.998 88.0672 281.395C94.3721 274.985 104.556 274.726 111.174 280.806L171.384 336.124Z" fill="#FDBA90"/>
<path d="M110.872 281.142L170.917 336.308L166.707 383.845L88.4339 304.921C82.087 298.521 82.0655 288.141 88.3859 281.715C94.5213 275.477 104.432 275.225 110.872 281.142Z" stroke="#FDBA90" stroke-width="0.902965"/>
<circle cx="96.5639" cy="290.363" r="16.4318" transform="rotate(-52.3824 96.5639 290.363)" fill="#FDBA90" stroke="#FDBA90" stroke-width="0.902965"/>
<path fill-rule="evenodd" clip-rule="evenodd" d="M182.82 345.011C182.82 345.011 167.442 329.719 162.211 330.207C154.104 330.962 159.433 346.724 159.433 346.724C159.433 346.724 152.468 351.211 156.949 359.242C153.963 366.955 158.204 370.718 158.204 370.718C158.204 370.718 153.632 376.556 160 381.398C166.368 386.242 180.969 385.005 178.899 374.857C184.804 369.296 180.036 363.662 180.036 363.662C180.036 363.662 184.334 358.358 179.569 352.992C183.852 350.62 184.409 346.623 182.82 345.011Z" fill="#FDBA90"/>
<path d="M163.711 343.562C163.841 343.343 164.108 343.254 164.338 343.34L164.423 343.381L179.834 352.545C180.081 352.692 180.162 353.01 180.015 353.257C179.885 353.476 179.619 353.565 179.388 353.479L179.303 353.438L163.892 344.274C163.645 344.127 163.564 343.809 163.711 343.562Z" fill="#ED9D63"/>
<path d="M162.182 329.688C162.468 329.672 162.714 329.891 162.73 330.178C162.746 330.464 162.527 330.71 162.24 330.726C159.131 330.9 157.958 333.685 158.292 338.423C158.405 340.012 158.685 341.717 159.083 343.448C159.231 344.093 159.387 344.706 159.546 345.278L159.759 346.022C159.832 346.266 159.889 346.448 159.926 346.559C159.992 346.757 159.933 346.974 159.777 347.112L159.585 347.292C159.479 347.396 159.347 347.53 159.195 347.693C158.748 348.172 158.3 348.72 157.883 349.325C155.706 352.483 155.208 355.779 157.377 358.949C157.48 359.099 157.497 359.291 157.422 359.456C155.568 363.561 155.825 366.695 157.344 368.989C157.606 369.385 157.886 369.719 158.164 369.993C158.326 370.152 158.447 370.252 158.507 370.295C158.622 370.378 158.698 370.504 158.718 370.642L158.723 370.727L158.596 377.936C158.591 378.223 158.354 378.451 158.067 378.446C157.809 378.441 157.598 378.249 157.562 378.002L157.557 377.917L157.679 370.966L157.565 370.865C157.282 370.606 156.953 370.243 156.62 369.772L156.477 369.563C154.807 367.04 154.49 363.643 156.322 359.376L156.358 359.293C154.145 355.863 154.66 352.301 156.867 348.973L157.027 348.736C157.475 348.086 157.955 347.499 158.435 346.984C158.547 346.864 158.655 346.753 158.756 346.652L158.839 346.569L158.666 345.987C158.463 345.282 158.26 344.506 158.07 343.681C157.661 341.902 157.372 340.145 157.256 338.497L157.222 337.922C156.994 333.011 158.441 329.898 162.182 329.688Z" fill="#ED9D63"/>
<path d="M164.628 359.156C164.701 358.908 164.942 358.755 165.19 358.786L165.273 358.803L180.181 363.163C180.457 363.244 180.615 363.532 180.534 363.808C180.462 364.056 180.221 364.208 179.973 364.178L179.89 364.16L164.981 359.8C164.706 359.72 164.548 359.431 164.628 359.156Z" fill="#ED9D63"/>
<path d="M164.611 371.589L178.996 374.346C179.278 374.401 179.462 374.673 179.408 374.955C179.36 375.208 179.134 375.383 178.884 375.376L178.8 375.367L164.416 372.61C164.134 372.556 163.949 372.284 164.003 372.002C164.052 371.748 164.277 371.573 164.527 371.58L164.611 371.589Z" fill="#ED9D63"/>
<line y1="-0.225741" x2="28.8949" y2="-0.225741" transform="matrix(-0.792102 -0.610388 -0.610388 0.792102 156.444 347.325)" stroke="#00F9EA" stroke-opacity="0.28" stroke-width="0.451482" stroke-dasharray="0.9 0.9"/>
<line y1="-0.225741" x2="28.0097" y2="-0.225741" transform="matrix(-0.610388 0.792102 0.792102 0.610388 153.549 327.413)" stroke="#00F9EA" stroke-opacity="0.28" stroke-width="0.451482" stroke-dasharray="0.9 0.9"/>
<rect x="0.0410204" y="0.3166" width="28.4434" height="28.3833" rx="14.1916" transform="matrix(-0.610388 0.792102 0.792102 0.610388 142.461 317.984)" stroke="#00F9EA" stroke-opacity="0.28" stroke-width="0.451482"/>
<line y1="-0.225741" x2="28.8949" y2="-0.225741" transform="matrix(-0.792102 -0.610388 -0.610388 0.792102 107.761 299.551)" stroke="#00F9EA" stroke-opacity="0.28" stroke-width="0.451482" stroke-dasharray="0.9 0.9"/>
<line y1="-0.225741" x2="28.0097" y2="-0.225741" transform="matrix(-0.610388 0.792102 0.792102 0.610388 104.866 279.639)" stroke="#00F9EA" stroke-opacity="0.28" stroke-width="0.451482" stroke-dasharray="0.9 0.9"/>
<rect x="0.0410204" y="0.3166" width="28.4434" height="28.3833" rx="14.1916" transform="matrix(-0.610388 0.792102 0.792102 0.610388 93.7777 270.21)" stroke="#00F9EA" stroke-opacity="0.28" stroke-width="0.451482"/>
<path d="M113.254 255.587L112.848 255.852L113.142 256.238L135.08 285.096L135.335 285.431L135.687 285.201L168.803 263.514L168.806 263.512C177.318 257.85 179.628 246.36 173.966 237.848C168.304 229.336 156.815 227.026 148.303 232.687C148.302 232.687 148.302 232.687 148.301 232.688L113.254 255.587Z" fill="#F472B6" stroke="#EC4899" stroke-width="0.902965"/>
<line y1="-0.225741" x2="27.0889" y2="-0.225741" transform="matrix(0.680139 -0.733083 -0.733084 -0.680139 147.713 256.519)" stroke="#00F9EA" stroke-opacity="0.28" stroke-width="0.451482" stroke-dasharray="0.9 0.9"/>
<line y1="-0.225741" x2="26.2591" y2="-0.225741" transform="matrix(-0.733084 -0.680139 -0.680139 0.733084 166.55 255.52)" stroke="#00F9EA" stroke-opacity="0.28" stroke-width="0.451482" stroke-dasharray="0.9 0.9"/>
<rect x="-0.319023" y="0.0119519" width="26.6375" height="26.5811" rx="13.2905" transform="matrix(-0.733084 -0.680139 -0.680139 0.733084 175.826 245.941)" stroke="#00F9EA" stroke-opacity="0.28" stroke-width="0.451482"/>
<path d="M155.587 251.371L166.196 330.132" stroke="#EC4899"/>
<path d="M269.711 264.547L259.102 343.308" stroke="#EC4899"/>
<line x1="276.918" y1="254.722" x2="255.064" y2="238.716" stroke="#00F9EA" stroke-opacity="0.28" stroke-width="0.451482" stroke-dasharray="0.9 0.9"/>
<line x1="258.184" y1="256.996" x2="273.699" y2="235.811" stroke="#00F9EA" stroke-opacity="0.28" stroke-width="0.451482" stroke-dasharray="0.9 0.9"/>
<rect x="247.264" y="249.748" width="26.6375" height="26.5811" rx="13.2905" transform="rotate(-53.7823 247.264 249.748)" stroke="#00F9EA" stroke-opacity="0.28" stroke-width="0.451482"/>
<path d="M198.738 208.006C198.738 200.008 205.221 193.524 213.219 193.524C221.217 193.524 227.701 200.008 227.701 208.006V221.701C227.701 229.699 221.217 236.182 213.219 236.182C205.221 236.182 198.738 229.699 198.738 221.701V208.006Z" fill="#FDBA90"/>
<path d="M199.189 208.006C199.189 200.257 205.471 193.976 213.219 193.976C220.968 193.976 227.249 200.257 227.249 208.006V221.701C227.249 229.45 220.968 235.731 213.219 235.731C205.471 235.731 199.189 229.45 199.189 221.701V208.006Z" stroke="#FDBA90" stroke-width="0.902965"/>
<mask id="mask1_211_1756" style="mask-type:alpha" maskUnits="userSpaceOnUse" x="198" y="193" width="30" height="44">
<path d="M199.189 208.006C199.189 200.257 205.471 193.976 213.219 193.976C220.968 193.976 227.249 200.257 227.249 208.006V221.701C227.249 229.45 220.968 235.731 213.219 235.731C205.471 235.731 199.189 229.45 199.189 221.701V208.006Z" fill="#F8DAC3" stroke="#F8DAC3" stroke-width="0.902965"/>
</mask>
<g mask="url(#mask1_211_1756)">
<path d="M179.757 150.34C179.757 134.11 192.913 120.954 209.143 120.954C225.372 120.954 238.528 134.11 238.528 150.34V183.336C238.528 199.566 225.372 212.722 209.143 212.722C192.913 212.722 179.757 199.566 179.757 183.336V150.34Z" fill="#ED9D63"/>
</g>
<path d="M169.298 150.617C169.342 150.893 169.396 151.164 169.459 151.436C169.798 152.828 170.342 154.167 171.075 155.411L171.114 155.477C171.393 155.945 171.691 156.413 172.013 156.881C172.868 158.084 173.801 159.233 174.806 160.323L175.407 160.964C175.812 161.4 176.222 161.826 176.632 162.247C174.459 161.779 172.355 163.722 171.969 165.82C171.583 167.918 172.457 170.034 173.536 171.907C175.426 175.222 178.151 177.428 180.549 180.307C182.346 182.452 183.342 184.989 185.3 187.04L185.446 187.195C190.618 192.402 198.782 193.619 205.58 195.843C208.021 196.648 219.091 209.882 232.715 204.863C235.75 203.745 237.09 202.623 240.357 199.622C252.077 188.951 256.18 169.617 249.207 155.477C241.711 140.259 225.728 128.338 214.168 126.563C202.609 124.789 197.405 124.307 192.6 126.563C187.795 128.82 185.402 135.82 189.387 139.238C186.881 137.42 183.764 136.552 180.632 136.799C177.739 136.973 175.01 138.149 172.955 140.109C171.327 141.678 170.157 143.628 169.562 145.766C169.12 147.347 169.03 149 169.298 150.617Z" fill="#934103"/>
<path d="M232.778 177.876C232.778 173.637 236.214 170.201 240.453 170.201C244.692 170.201 248.128 173.637 248.128 177.876C248.128 182.115 244.692 185.552 240.453 185.552C236.214 185.552 232.778 182.115 232.778 177.876Z" fill="#FDBA90" stroke="#FDBA90" stroke-width="0.902965"/>
<path d="M178.311 177.876C178.311 173.637 181.748 170.201 185.987 170.201C190.225 170.201 193.662 173.637 193.662 177.876C193.662 182.115 190.225 185.552 185.987 185.552C181.748 185.552 178.311 182.115 178.311 177.876Z" fill="#FDBA90" stroke="#FDBA90" stroke-width="0.902965"/>
<path d="M182.215 175.252C182.962 175.943 184.422 177.657 184.289 178.984" stroke="#662D03" stroke-width="0.902965" stroke-linecap="round" stroke-linejoin="round"/>
<path d="M244.35 175.636C243.053 175.636 242.143 178.042 242.276 179.369" stroke="#662D03" stroke-width="0.902965" stroke-linecap="round" stroke-linejoin="round"/>
<path d="M186.855 161.27C186.855 143.075 204.849 130.349 222.005 136.412C232.54 140.136 239.584 150.096 239.584 161.27V183.996C239.584 198.557 227.78 210.361 213.219 210.361C198.659 210.361 186.855 198.557 186.855 183.996V161.27Z" fill="#FDBA90"/>
<path d="M187.306 161.27C187.306 143.386 204.993 130.879 221.854 136.838C232.209 140.498 239.132 150.287 239.132 161.27V183.996C239.132 198.308 227.531 209.909 213.219 209.909C198.908 209.909 187.306 198.308 187.306 183.996V161.27Z" stroke="#FDBA90" stroke-width="0.902965"/>
<path fill-rule="evenodd" clip-rule="evenodd" d="M187.167 159.395C186.57 161.71 186.779 169.838 186.779 169.838C186.779 169.838 184.171 169.48 182.046 170.747C178.643 172.776 177.967 175.632 177.844 176.961C177.836 176.953 177.828 176.945 177.821 176.937C176.192 175.161 174.591 173.417 173.353 171.177C172.284 169.263 171.417 167.1 171.8 164.957C172.182 162.814 174.267 160.828 176.421 161.307C176.014 160.876 175.608 160.441 175.206 159.996L174.611 159.34C173.615 158.226 172.691 157.052 171.843 155.824C171.524 155.345 171.229 154.867 170.953 154.388L170.914 154.321C170.188 153.05 169.648 151.682 169.313 150.259C169.25 149.982 169.196 149.704 169.153 149.422C168.888 147.77 168.977 146.081 169.414 144.466C170.004 142.281 171.164 140.288 172.777 138.686C174.813 136.683 177.517 135.481 180.384 135.304C183.487 135.051 186.576 135.938 189.059 137.796C185.111 134.304 187.482 127.151 192.243 124.845C197.005 122.539 200.912 121.519 213.615 124.845C226.319 128.171 240.908 138.839 248.335 154.388C249.006 155.791 249.574 157.244 250.041 158.733C248.414 162.063 246.326 165.198 244.503 167.935C244.085 168.563 243.681 169.169 243.3 169.752C241.63 169.371 240.604 172.819 239.639 176.063C238.82 178.814 238.045 181.419 236.958 181.419C234.588 181.419 231.977 171.677 231.977 166.442C217.805 169.752 200.394 161.015 192.866 152.128C192.603 152.495 192.12 152.892 191.538 153.37C190.068 154.576 187.964 156.303 187.167 159.395Z" fill="#934103"/>
<path d="M169.031 148.868C169.043 149.352 169.035 149.815 169.106 150.105C169.314 151.593 170.012 153.719 170.321 154.22C170.631 154.721 171.441 156.154 171.8 156.655C172.743 157.947 174.121 159.579 174.121 159.579C174.121 159.579 175.262 160.876 175.718 161.327C174.332 161.056 171.937 163.109 171.508 165.353C171.078 167.597 172.051 169.861 173.253 171.865C175.357 175.411 175.499 175.438 177.802 177.117C177.802 177.117 177.952 172.022 184.04 169.891C184.29 169.804 186.483 169.579 186.483 169.579C186.483 164.017 185.756 164.017 187.523 157.832C190.879 153.361 192.513 151.542 192.513 151.542C190.301 149.027 185.693 144.516 182.853 142.611C180.635 141.264 177.781 141.053 175.134 141.399C172.827 141.689 170.476 142.595 169.692 143.646C169.198 145.335 168.98 146.813 169.031 148.868Z" fill="#662D03"/>
<line x1="213.3" y1="213.547" x2="213.3" y2="193.524" stroke="#00F9EA" stroke-opacity="0.28" stroke-width="0.451482" stroke-dasharray="0.9 0.9"/>
<line x1="203.821" y1="203.31" x2="223.23" y2="203.31" stroke="#00F9EA" stroke-opacity="0.28" stroke-width="0.451482" stroke-dasharray="0.9 0.9"/>
<rect x="203.433" y="193.75" width="19.571" height="19.5293" rx="9.76466" stroke="#00F9EA" stroke-opacity="0.28" stroke-width="0.451482"/>
<path d="M218.929 196.996C218.929 196.996 210.291 198.016 206.862 196.996" stroke="#662D03" stroke-width="0.902965" stroke-linecap="round"/>
<path d="M210.254 177.937C207.69 180.652 207.297 190.019 207.297 190.019H212.073" stroke="#662D03" stroke-width="0.902965" stroke-linecap="round" stroke-linejoin="round"/>
<path d="M230.831 169.289C226.138 169.201 221.465 169.935 217.025 171.458" stroke="#662D03" stroke-width="0.902965" stroke-linecap="round"/>
<path d="M205.597 171.732C201.221 170.034 196.581 169.115 191.888 169.016" stroke="#662D03" stroke-width="0.902965" stroke-linecap="round"/>
<path d="M223.029 174.156C220 174.156 220 180.444 223.029 180.478H223.168C226.202 180.478 226.202 174.19 223.168 174.156H223.034H223.029Z" fill="#662D03"/>
<path d="M198.655 174.156C195.625 174.192 195.625 180.442 198.655 180.478H198.794C201.823 180.478 201.823 174.192 198.794 174.156H198.655Z" fill="#662D03"/>
<path d="M187.082 176.339C187.082 175.052 186.754 165.598 186.754 163.026C186.754 156.352 192.539 152.1 192.539 152.1" stroke="#662D03" stroke-width="0.902965" stroke-linecap="round" stroke-linejoin="round"/>
<line x1="213.3" y1="236.182" x2="213.3" y2="216.16" stroke="#00F9EA" stroke-opacity="0.28" stroke-width="0.451482" stroke-dasharray="0.9 0.9"/>
<line x1="203.821" y1="225.945" x2="223.23" y2="225.945" stroke="#00F9EA" stroke-opacity="0.28" stroke-width="0.451482" stroke-dasharray="0.9 0.9"/>
<rect x="203.433" y="216.386" width="19.571" height="19.5293" rx="9.76466" stroke="#00F9EA" stroke-opacity="0.28" stroke-width="0.451482"/>
<line x1="213.406" y1="329.247" x2="213.406" y2="302.304" stroke="#00F9EA" stroke-opacity="0.28" stroke-width="0.451482" stroke-dasharray="0.9 0.9"/>
<line x1="200.573" y1="315.549" x2="226.691" y2="315.549" stroke="#00F9EA" stroke-opacity="0.28" stroke-width="0.451482" stroke-dasharray="0.9 0.9"/>
<rect x="199.973" y="302.53" width="26.4914" height="26.4353" rx="13.2176" stroke="#00F9EA" stroke-opacity="0.28" stroke-width="0.451482"/>
<path d="M203.925 248.168L211.798 257.337L202.21 318.44L212.313 334.501L224.23 317.668L214.127 257.594L223.051 248.848L213.25 242.757L203.925 248.168Z" fill="black"/>
<path d="M196.222 220.38L153.868 228.566L154.601 234.442L196.112 225.079L196.222 220.38Z" fill="black"/>
<path d="M264.75 219.546C264.75 219.546 281.397 223.348 291.59 229.252C301.783 235.156 304.223 248.436 298.391 263.187C292.559 277.939 274.597 275.976 266.342 271.947C258.088 267.917 255.648 253.271 257.101 246.876" fill="#F472B6"/>
<path d="M264.75 219.546C264.75 219.546 281.397 223.348 291.59 229.252C301.783 235.156 304.223 248.436 298.391 263.187C292.559 277.939 274.597 275.976 266.342 271.947C258.088 267.917 255.648 253.271 257.101 246.876" stroke="#EC4899" stroke-width="0.9" stroke-linecap="round" stroke-linejoin="round"/>
<g filter="url(#filter0_i_211_1756)">
<path d="M279.414 264.843C290.797 264.843 300.024 255.151 300.024 243.194C300.024 231.238 290.797 221.546 279.414 221.546C268.031 221.546 258.803 231.238 258.803 243.194C258.803 255.151 268.031 264.843 279.414 264.843Z" fill="#FDBA90"/>
</g>
<path d="M279.366 247.193C289.161 247.193 297.102 240.077 297.102 231.299C297.102 222.521 289.161 215.405 279.366 215.405C269.571 215.405 261.63 222.521 261.63 231.299C261.63 240.077 269.571 247.193 279.366 247.193Z" fill="#FDBA90"/>
<path d="M252.392 189.538C252.392 189.538 252.722 214.572 253.993 221.954C255.264 229.336 260.417 238.963 267.485 238.963C272.194 238.847 276.854 237.983 281.291 236.404C281.291 236.404 289.63 240.895 297.656 239.607C305.681 238.319 307.722 222.191 307.722 217.299C307.722 212.407 304.279 181.531 304.279 181.531C304.279 181.531 303.022 177.459 301.298 176.68C299.574 175.902 298.462 175.568 296.054 177.57L296.054 169.339C296.054 167.737 294.068 164.611 291.009 164.611C287.95 164.611 286.096 166.993 286.096 166.993C286.096 166.993 286.075 162.328 285.604 159.97C285.153 157.716 281.922 154.824 278.07 157.035C277.154 157.561 276.383 158.305 275.824 159.201C275.265 160.097 274.936 161.117 274.867 162.171C274.867 162.171 274.536 166.036 274.536 168.925C273.206 165.38 267.571 162.9 266.197 170.527C264.367 180.684 264.265 202.699 264.265 202.699C263.809 198.347 262.952 194.046 261.706 189.851C260.104 185.673 252.392 185.673 252.392 189.538Z" fill="#FDBA90"/>
<path d="M274.536 170.896L275.18 198.521" stroke="#ED9D63" stroke-width="1.16634" stroke-linecap="round" stroke-linejoin="round"/>
<path d="M286.096 168.995L286.426 198.835" stroke="#ED9D63" stroke-width="1.16634" stroke-linecap="round" stroke-linejoin="round"/>
<path d="M296.054 179.183L295.41 198.521" stroke="#ED9D63" stroke-width="1.16634" stroke-linecap="round" stroke-linejoin="round"/>
<path d="M270.375 200.132L298.424 201.402" stroke="#ED9D63" stroke-width="1.16634" stroke-linecap="round" stroke-linejoin="round"/>
<path d="M264.265 202.699C264.274 203.911 264.563 205.104 265.11 206.185C265.656 207.266 266.446 208.207 267.416 208.932C270.585 210.917 277.722 216.07 278.506 224.391" fill="#FDBA90"/>
<path d="M264.265 202.699C264.274 203.911 264.563 205.104 265.11 206.185C265.656 207.266 266.446 208.207 267.416 208.932C270.585 210.917 277.722 216.07 278.506 224.391" stroke="#ED9D63" stroke-width="1.16634" stroke-linecap="round" stroke-linejoin="round"/>
<path d="M263.39 238C265.094 240.942 273.077 242.657 276.574 239.637C279.694 242.832 293.212 245.209 299.651 239.637" stroke="#ED9D63" stroke-linecap="round"/>
<path d="M590.377 628.698H478.853C476.644 628.698 474.853 630.489 474.853 632.698V633.649C474.853 635.858 476.644 637.649 478.853 637.649H590.377C592.586 637.649 594.377 635.858 594.377 633.649V632.698C594.377 630.489 592.586 628.698 590.377 628.698Z" fill="#3A3A3A"/>
<g filter="url(#filter1_d_211_1756)">
<path d="M573.333 623.974C573.785 626.432 571.898 628.698 569.399 628.698H499.829C497.33 628.698 495.443 626.432 495.895 623.974L525.458 463.281C525.808 461.382 527.462 460.004 529.392 460.004H539.836C541.766 460.004 543.42 461.382 543.77 463.281L573.333 623.974Z" fill="#6366F1"/>
<path d="M569.399 629.198C572.21 629.198 574.333 626.649 573.825 623.884L544.261 463.19C543.868 461.055 542.007 459.504 539.836 459.504H529.392C527.221 459.504 525.359 461.055 524.967 463.19L495.403 623.884C494.894 626.649 497.018 629.198 499.829 629.198H569.399Z" stroke="black" stroke-linecap="round" stroke-linejoin="round"/>
</g>
<path d="M514.534 522.615H554.711L550.853 501.745H518.377L514.534 522.615Z" fill="#334155"/>
<path d="M46.7557 637.673C46.4726 639.642 44.7857 641.104 42.7965 641.104H28.7838C26.3481 641.104 24.4778 638.946 24.8245 636.535L53.129 439.682C53.4121 437.713 55.0991 436.251 57.0883 436.251H71.101C73.5366 436.251 75.4069 438.409 75.0603 440.82L46.7557 637.673Z" fill="#3A3A3A"/>
<path d="M89.9596 637.673C90.2427 639.642 91.9296 641.104 93.9189 641.104H107.916C110.352 641.104 112.222 638.946 111.875 636.535L83.5708 439.682C83.2877 437.713 81.6008 436.251 79.6115 436.251H65.6143C63.1787 436.251 61.3084 438.409 61.655 440.82L89.9596 637.673Z" fill="#8C837C"/>
<path d="M360.223 637.673C359.94 639.642 358.253 641.104 356.264 641.104H342.266C339.831 641.104 337.961 638.946 338.307 636.535L366.597 439.682C366.88 437.713 368.567 436.251 370.556 436.251H384.568C387.004 436.251 388.874 438.409 388.528 440.82L360.223 637.673Z" fill="#3A3A3A"/>
<path d="M403.426 637.673C403.709 639.642 405.396 641.104 407.385 641.104H421.382C423.818 641.104 425.688 638.946 425.342 636.535L397.037 439.682C396.754 437.713 395.067 436.251 393.078 436.251H379.081C376.645 436.251 374.775 438.409 375.121 440.82L403.426 637.673Z" fill="#8C837C"/>
<path d="M421.625 404.126H8.51611C4.09784 404.126 0.516113 407.708 0.516113 412.126V436.877C0.516113 441.296 4.09782 444.877 8.5161 444.877H421.625C426.043 444.877 429.625 441.296 429.625 436.877V412.126C429.625 407.708 426.043 404.126 421.625 404.126Z" fill="#6366F1"/>
<path d="M15.1807 444.877H50.9417L69.4265 404.126H33.6655L15.1807 444.877Z" fill="#3A3A3A"/>
<path d="M156.737 404.126H120.976L102.492 444.877H138.253L156.737 404.126Z" fill="#3A3A3A"/>
<path d="M418.654 404.126H382.893L364.424 444.877H400.185L418.654 404.126Z" fill="#3A3A3A"/>
<path d="M331.36 404.126H295.583L277.114 444.877H312.875L331.36 404.126Z" fill="#3A3A3A"/>
<path d="M244.049 404.126H208.288L189.803 444.877H225.564L244.049 404.126Z" fill="#3A3A3A"/>
<defs>
<filter id="filter0_i_211_1756" x="258.803" y="221.546" width="41.2207" height="43.2968" filterUnits="userSpaceOnUse" color-interpolation-filters="sRGB">
<feFlood flood-opacity="0" result="BackgroundImageFix"/>
<feBlend mode="normal" in="SourceGraphic" in2="BackgroundImageFix" result="shape"/>
<feColorMatrix in="SourceAlpha" type="matrix" values="0 0 0 0 0 0 0 0 0 0 0 0 0 0 0 0 0 0 127 0" result="hardAlpha"/>
<feOffset dy="-6"/>
<feComposite in2="hardAlpha" operator="arithmetic" k2="-1" k3="1"/>
<feColorMatrix type="matrix" values="0 0 0 0 0.929412 0 0 0 0 0.615686 0 0 0 0 0.388235 0 0 0 1 0"/>
<feBlend mode="normal" in2="shape" result="effect1_innerShadow_211_1756"/>
</filter>
<filter id="filter1_d_211_1756" x="490.828" y="459.004" width="87.5728" height="178.693" filterUnits="userSpaceOnUse" color-interpolation-filters="sRGB">
<feFlood flood-opacity="0" result="BackgroundImageFix"/>
<feColorMatrix in="SourceAlpha" type="matrix" values="0 0 0 0 0 0 0 0 0 0 0 0 0 0 0 0 0 0 127 0" result="hardAlpha"/>
<feOffset dy="4"/>
<feGaussianBlur stdDeviation="2"/>
<feComposite in2="hardAlpha" operator="out"/>
<feColorMatrix type="matrix" values="0 0 0 0 0 0 0 0 0 0 0 0 0 0 0 0 0 0 0.25 0"/>
<feBlend mode="normal" in2="BackgroundImageFix" result="effect1_dropShadow_211_1756"/>
<feBlend mode="normal" in="SourceGraphic" in2="effect1_dropShadow_211_1756" result="shape"/>
</filter>
<clipPath id="clip0_211_1756">
<rect width="434" height="238" fill="white" transform="translate(179)"/>
</clipPath>
</defs>
</svg>
